# xmcd
#
# Track frame offsets:
#	150
#	13785
#	37910
#	54646
#	74016
#	85209
#	101686
#	116432
#	131053
#	150422
#	161445
#	171718
#	187226
#	198799
#	214406
#	227740
#	241510
#	255187
#	274676
#	304056
#	312532
#
# Disc length: 4390 seconds
#
# Revision: 0
# Processed by: cddbd v1.5.1PL2 Copyright (c) Steve Scherf et al.
# Submitted via: audiograbber 1.83.01
#
DISCID=25112415
DTITLE=Gordon Lightfoot - Greatest Hits CD1
DYEAR=1900
DGENRE=Country
TTITLE0=Alberta Bound
TTITLE1=Ballad Of Yarmouth Castle
TTITLE2=Every Highway
TTITLE3=Daylight Katy
TTITLE4=Did She Mention My Name
TTITLE5=Don Quixote
TTITLE6=Drink Yer Glasses Empty
TTITLE7=Early Morning Rain
TTITLE8=Endless Wire
TTITLE9=For Lovin' Me
TTITLE10=Go My Way
TTITLE11=It´s Worth Believing
TTITLE12=Mama Said
TTITLE13=Minstel of the dawn
TTITLE14=North Ontario
TTITLE15=Second Cup Of Coffee
TTITLE16=Song For A Winter's Night
TTITLE17=The Watchman's Gone
TTITLE18=The Wreck Of The Edmund Fitzgerald
TTITLE19=Unsettled Ways
TTITLE20=There Is Love (Wedding Song)
EXTD=
EXTT0=
EXTT1=
EXTT2=
EXTT3=
EXTT4=
EXTT5=
EXTT6=
EXTT7=
EXTT8=
EXTT9=
EXTT10=
EXTT11=
EXTT12=
EXTT13=
EXTT14=
EXTT15=
EXTT16=
EXTT17=
EXTT18=
EXTT19=
EXTT20=
PLAYORDER=
